<svg width="22" height="23" viewBox="0 0 22 23" fill="none" xmlns="http://www.w3.org/2000/svg">
<path d="M18.5625 10.4129C18.1291 10.2226 17.6608 10.1246 17.1875 10.125H4.8125C4.3392 10.1245 3.87097 10.2224 3.4375 10.4125C2.82485 10.6804 2.30353 11.121 1.93724 11.6804C1.57096 12.2398 1.37559 12.8938 1.375 13.5625V18.375C1.375 18.5573 1.44743 18.7322 1.57636 18.8611C1.7053 18.9901 1.88016 19.0625 2.0625 19.0625C2.24484 19.0625 2.4197 18.9901 2.54864 18.8611C2.67757 18.7322 2.75 18.5573 2.75 18.375V18.0313C2.75111 17.9404 2.78769 17.8536 2.85191 17.7894C2.91614 17.7252 3.00293 17.6886 3.09375 17.6875H18.9062C18.9971 17.6886 19.0839 17.7252 19.1481 17.7894C19.2123 17.8536 19.2489 17.9404 19.25 18.0313V18.375C19.25 18.5573 19.3224 18.7322 19.4514 18.8611C19.5803 18.9901 19.7552 19.0625 19.9375 19.0625C20.1198 19.0625 20.2947 18.9901 20.4236 18.8611C20.5526 18.7322 20.625 18.5573 20.625 18.375V13.5625C20.6243 12.8939 20.4289 12.24 20.0626 11.6806C19.6964 11.1213 19.1751 10.6808 18.5625 10.4129Z" fill="#808A93"/>
<path d="M16.1562 3.9375H5.84375C5.20557 3.9375 4.59353 4.19102 4.14227 4.64227C3.69102 5.09353 3.4375 5.70557 3.4375 6.34375V9.4375C3.43752 9.46413 3.44373 9.4904 3.45564 9.51422C3.46755 9.53805 3.48483 9.55878 3.50612 9.57478C3.52741 9.59078 3.55213 9.60161 3.57833 9.60642C3.60453 9.61123 3.63148 9.60989 3.65707 9.6025C4.03238 9.49273 4.42146 9.43717 4.8125 9.4375H4.99426C5.03668 9.43777 5.07771 9.42234 5.10944 9.39418C5.14117 9.36602 5.16136 9.32712 5.16613 9.28496C5.20363 8.94903 5.36356 8.63868 5.61537 8.41318C5.86718 8.18768 6.19323 8.06284 6.53125 8.0625H8.9375C9.27574 8.06253 9.60211 8.18722 9.85419 8.41275C10.1063 8.63828 10.2664 8.94881 10.3039 9.28496C10.3087 9.32712 10.3289 9.36602 10.3606 9.39418C10.3923 9.42234 10.4334 9.43777 10.4758 9.4375H11.5268C11.5692 9.43777 11.6102 9.42234 11.642 9.39418C11.6737 9.36602 11.6939 9.32712 11.6987 9.28496C11.7361 8.94925 11.8959 8.63908 12.1474 8.41361C12.399 8.18814 12.7247 8.06316 13.0625 8.0625H15.4688C15.807 8.06253 16.1334 8.18722 16.3854 8.41275C16.6375 8.63828 16.7976 8.94881 16.8352 9.28496C16.8399 9.32712 16.8601 9.36602 16.8919 9.39418C16.9236 9.42234 16.9646 9.43777 17.007 9.4375H17.1875C17.5786 9.43731 17.9676 9.49302 18.3429 9.60293C18.3686 9.61033 18.3955 9.61167 18.4218 9.60683C18.448 9.602 18.4727 9.59113 18.4941 9.57508C18.5154 9.55903 18.5326 9.53824 18.5445 9.51436C18.5564 9.49049 18.5625 9.46417 18.5625 9.4375V6.34375C18.5625 5.70557 18.309 5.09353 17.8577 4.64227C17.4065 4.19102 16.7944 3.9375 16.1562 3.9375Z" fill="#808A93"/>
</svg>
