<svg width="22" height="23" viewBox="0 0 22 23" fill="none" xmlns="http://www.w3.org/2000/svg">
<path d="M9.89431 1.3945C9.65904 1.64712 9.52683 1.98978 9.52676 2.34709V5.83142H3.25446C2.92176 5.83142 2.60268 5.97338 2.36742 6.22606C2.13217 6.47874 2 6.82146 2 7.1788V12.5683C2 12.9257 2.13217 13.2684 2.36742 13.5211C2.60268 13.7738 2.92176 13.9157 3.25446 13.9157H9.52676V22H12.0357V13.9157H16.4664C16.6503 13.9156 16.8319 13.8722 16.9984 13.7883C17.1649 13.7045 17.3122 13.5824 17.4298 13.4307L19.8547 10.3047C19.9486 10.1837 20 10.0311 20 9.87357C20 9.71602 19.9486 9.56346 19.8547 9.4424L17.4298 6.31648C17.3122 6.16473 17.1649 6.04263 16.9984 5.95881C16.8319 5.87498 16.6503 5.8315 16.4664 5.83142H12.0357V2.34709C12.0356 2.08065 11.962 1.8202 11.8242 1.59868C11.6863 1.37716 11.4904 1.2045 11.2612 1.10255C11.032 1.00059 10.7799 0.973909 10.5366 1.02587C10.2932 1.07784 10.0698 1.20612 9.89431 1.3945Z" fill="#021526" fill-opacity="0.5"/>
</svg>
