<svg width="22" height="23" viewBox="0 0 22 23" fill="none" xmlns="http://www.w3.org/2000/svg">
<rect width="22" height="22" transform="translate(0 0.5)" fill="white"/>
<path d="M3 17.6111C3 18.1121 3.19901 18.5925 3.55324 18.9468C3.90748 19.301 4.38792 19.5 4.88889 19.5H18.1111C18.6121 19.5 19.0925 19.301 19.4468 18.9468C19.801 18.5925 20 18.1121 20 17.6111V4.38889C20 3.88792 19.801 3.40748 19.4468 3.05324C19.0925 2.69901 18.6121 2.5 18.1111 2.5H4.88889C4.38792 2.5 3.90748 2.69901 3.55324 3.05324C3.19901 3.40748 3 3.88792 3 4.38889V17.6111ZM11.5 5.33333H17.1667V11H15.2778V7.22222H11.5V5.33333ZM5.83333 11H7.72222V14.7778H11.5V16.6667H5.83333V11Z" fill="#808A93"/>
</svg>
